#!OML:ASF F:\VICON\USERDATA\INSTALL\rory3\rory3.ASF
:FULLY-SPECIFIED
:DEGREES
636
root 0.0697071 17.9113 -0.749546 1.37719 -8.17746 3.47208
lowerback 0.0946716 -1.71459 -5.58682
upperback -0.685223 -2.30306 2.71871
thorax -0.428072 -1.12304 5.96331
lowerneck -24.9854 1.81048 -9.29697
upperneck -0.548526 4.54214 6.34255
head 3.30083 2.59788 3.9058
rclavicle -4.42296e-014 1.27222e-014
rhumerus -34.3648 -5.53996 -75.7403
rradius 33.9412
rwrist 19.4227
rhand -22.1387 7.8899
rfingers 7.12502
rthumb 4.27484 -22.047
lclavicle -4.42296e-014 1.27222e-014
lhumerus 58.5925 10.0862 54.3258
lradius 94.9735
lwrist -7.46199
lhand -33.295 6.16682
lfingers 7.12502
lthumb -6.49899 36.0471
rfemur -8.00204 6.70265 12.2096
rtibia 27.7978
rfoot -18.1585 -2.45485
rtoes 3.10343
lfemur 1.15957 -2.20348 -24.4444
ltibia 12.3009
lfoot -10.6642 4.04976
ltoes -10.7166
637
root 0.069984 17.912 -0.750048 1.37913 -8.18866 3.44691
lowerback 0.0748384 -1.72904 -5.55626
upperback -0.649198 -2.32093 2.71375
thorax -0.378476 -1.13482 5.93904
lowerneck -25.1109 1.79532 -9.40993
upperneck -0.451181 4.554 6.48808
head 3.34264 2.61297 3.97597
rclavicle -1.30701e-014 -3.97569e-015
rhumerus -34.2806 -5.52814 -75.7993
rradius 33.9431
rwrist 19.4283
rhand -21.9381 7.04471
rfingers 7.12502
rthumb 4.46856 -22.8882
lclavicle -1.30701e-014 -3.97569e-015
lhumerus 58.48 10.05 54.2033
lradius 94.916
lwrist -7.51842
lhand -33.3746 6.29271
lfingers 7.12502
lthumb -6.57589 36.1706
rfemur -7.99532 6.73733 12.2396
rtibia 27.7861
rfoot -18.1705 -2.46281
rtoes 3.23171
lfemur 1.15562 -2.15715 -24.4223
ltibia 12.3251
lfoot -10.7084 4.06951
ltoes -11.0882
638
root 0.0703045 17.9133 -0.749304 1.41113 -8.18545 3.44232
lowerback 0.0411263 -1.73543 -5.55682
upperback -0.695134 -2.32824 2.70925
thorax -0.406145 -1.1363 5.93439
lowerneck -25.0388 1.80232 -9.46784
upperneck -0.336562 4.56636 6.57635
head 3.36516 2.62233 4.01479
rclavicle -3.09607e-014 -1.66979e-014
rhumerus -34.3912 -5.50759 -75.8105
rradius 34.0008
rwrist 19.422
rhand -21.8941 6.73301
rfingers 7.12502
rthumb 4.51107 -23.199
lclavicle -3.09607e-014 -1.66979e-014
lhumerus 58.2196 9.87725 54.1101
lradius 94.9527
lwrist -7.37485
lhand -33.3007 6.47118
lfingers 7.12502
lthumb -6.50449 36.3513
rfemur -8.02447 6.74605 12.2407
rtibia 27.7786
rfoot -18.1837 -2.51714
rtoes 3.2568
lfemur 1.12283 -2.09764 -24.4155
ltibia 12.3367
lfoot -10.7286 4.00744
ltoes -11.4592
639
root 0.0703026 17.9132 -0.749414 1.4123 -8.19049 3.40874
lowerback 0.0410299 -1.73292 -5.54474
upperback -0.711243 -2.32495 2.72135
thorax -0.423183 -1.13368 5.94058
lowerneck -25.0588 1.79285 -9.54326
upperneck -0.146665 4.56604 6.70034
head 3.42391 2.62781 4.07036
rclavicle -3.48619e-014 1.19271e-014
rhumerus -34.4554 -5.46752 -75.8191
rradius 34.0598
rwrist 19.3985
rhand -21.9378 6.91003
rfingers 7.12502
rthumb 4.46886 -23.0228
lclavicle -3.48619e-014 1.19271e-014
lhumerus 57.9907 9.70194 54.1312
lradius 95.0888
lwrist -7.3211
lhand -33.0515 6.75178
lfingers 7.12502
lthumb -6.26397 36.6392
rfemur -8.02522 6.72386 12.2745
rtibia 27.7728
rfoot -18.167 -2.51946
rtoes 3.2621
lfemur 1.11487 -2.14047 -24.3756
ltibia 12.3366
lfoot -10.7326 4.00388
ltoes -11.1098
640
root 0.0708996 17.9118 -0.750085 1.38049 -8.16967 3.38633
lowerback 0.0758603 -1.73676 -5.5307
upperback -0.666148 -2.33129 2.7326
thorax -0.395283 -1.1391 5.94459
lowerneck -25.2381 1.7689 -9.61626
upperneck -0.0147474 4.56335 6.77748
head 3.48708 2.63172 4.11314
rclavicle -1.28589e-014 4.77083e-015
rhumerus -34.3856 -5.52821 -75.8082
rradius 34.0688
rwrist 19.4192
rhand -21.9223 6.78185
rfingers 7.12502
rthumb 4.48379 -23.1507
lclavicle -1.28589e-014 4.77083e-015
lhumerus 57.8294 9.60672 54.1034
lradius 95.2283
lwrist -7.26132
lhand -33.0128 7.08366
lfingers 7.12502
lthumb -6.22654 36.9721
rfemur -7.98743 6.7128 12.3025
rtibia 27.7781
rfoot -18.1964 -2.48997
rtoes 3.4224
lfemur 1.1482 -2.17902 -24.3505
ltibia 12.3191
lfoot -10.6748 4.0212
ltoes -10.9819
641
root 0.0711481 17.9124 -0.750369 1.37929 -8.153 3.43625
lowerback 0.0355635 -1.72931 -5.58924
upperback -0.627043 -2.31929 2.70803
thorax -0.332729 -1.13603 5.95002
lowerneck -25.309 1.75285 -9.567
upperneck 0.0207277 4.53664 6.73318
head 3.51192 2.61627 4.09115
rclavicle -2.45996e-015 -3.18055e-015
rhumerus -34.3269 -5.62048 -75.816
rradius 34.067
rwrist 19.4117
rhand -21.9422 6.76511
rfingers 7.12502
rthumb 4.46456 -23.1678
lclavicle -2.45996e-015 -3.18055e-015
lhumerus 57.7118 9.46811 54.0571
lradius 95.2609
lwrist -7.16939
lhand -33.1671 6.90111
lfingers 7.12502
lthumb -6.3755 36.7852
rfemur -7.99694 6.66764 12.2422
rtibia 27.781
rfoot -18.1976 -2.45415
rtoes 3.56105
lfemur 1.1442 -2.18252 -24.4071
ltibia 12.3348
lfoot -10.6471 4.03095
ltoes -11.1302
